<svg width="51" height="51" viewBox="0 0 51 51" fill="none" xmlns="http://www.w3.org/2000/svg">
<path d="M35.4709 3.24426L40.4514 5.7345C40.2322 6.59911 39.535 7.97272 38.4492 9.44893C37.1244 11.2558 35.3016 13.2779 33.4289 15.1406C31.5662 17.0133 29.6338 18.7465 28.0998 19.9916C27.3328 20.6092 26.6555 21.1172 26.1475 21.4459C25.8985 21.6053 25.6893 21.7347 25.5498 21.8045C25.5199 21.8144 25.5199 21.8144 25.5 21.8144C25.4801 21.8144 25.4801 21.8144 25.4502 21.8045C25.3108 21.7347 25.1016 21.6053 24.8526 21.4459C24.3445 21.1172 23.6672 20.6092 22.9002 19.9916C21.3662 18.7465 19.4338 17.0133 17.5711 15.1406C15.6984 13.2779 13.8756 11.2558 12.5508 9.44993C11.4651 7.97272 10.7678 6.59911 10.5486 5.7345L15.5291 3.24426C16.9834 6.20565 18.4477 9.43399 19.9318 12.2121C21.5455 15.2502 23.0795 17.7603 25.1016 18.7764L25.5 18.9756L25.8985 18.7764C27.9205 17.7603 29.4545 15.2502 31.0682 12.2121C32.5524 9.43399 34.0166 6.20465 35.4709 3.24426ZM25.5 14.0848C26.2869 14.0848 27.044 14.1545 27.7611 14.274C26.9443 15.4892 26.1674 16.4156 25.5 16.9137C24.8326 16.4156 24.0557 15.4892 23.2389 14.274C23.9561 14.1545 24.7131 14.0848 25.5 14.0848ZM33.7776 17.3221C36.0985 19.5832 37.3535 22.7607 37.3535 25.9383V25.998C34.0664 24.8027 29.7932 24.2449 25.5 24.2449C21.2068 24.2449 16.9336 24.8027 13.6465 25.998V25.9383C13.6465 22.7607 14.9016 19.5832 17.2225 17.3221C18.8361 18.876 20.4299 20.2904 21.7746 21.3762C22.5715 22.0236 23.2787 22.5615 23.8664 22.94C24.1553 23.1392 24.4143 23.2887 24.6633 23.4082C24.9123 23.5277 25.1016 23.6472 25.5 23.6472C25.8985 23.6472 26.0877 23.5277 26.3367 23.4082C26.5858 23.2887 26.8447 23.1392 27.1336 22.94C27.7213 22.5615 28.4285 22.0236 29.2254 21.3762C30.5701 20.2904 32.1639 18.876 33.7776 17.3221ZM40.1824 21.1371C42.2344 23.1293 43.3201 23.7469 46.5375 24.8525C45.2824 27.3328 43.9576 29.5441 40.8598 30.9486L39.1365 25.7689C39.1266 25.2012 39.0867 24.6334 39.007 24.0656L40.1824 21.1371ZM10.8176 21.1371L11.993 24.0656C11.9133 24.6334 11.8735 25.2012 11.8635 25.7689L10.1402 30.9486C7.0414 29.5441 5.7166 27.3328 4.46152 24.8525C7.6789 23.7469 8.76464 23.1293 10.8176 21.1371ZM26.3965 26.0478C30.8889 26.1375 35.2916 26.9144 38.0707 28.2592L40.8996 36.726L36.5865 34.7537C36.1981 32.4029 35.959 30.1418 35.959 28.9265V27.4722L34.6641 28.1197C31.885 29.5142 29.1358 30.2713 26.3965 30.4107V26.0478ZM24.6035 26.0478V30.4107C21.8643 30.2713 19.1151 29.5142 16.336 28.1197L15.041 27.4722V28.9265C15.041 30.1418 14.802 32.4029 14.4135 34.7537L10.1004 36.726L12.9293 28.2592C15.7084 26.9144 20.1111 26.1375 24.6035 26.0478ZM34.2258 30.3111C34.3553 32.1639 34.7039 34.6441 35.182 37.0447C35.4809 38.5787 35.8395 40.0529 36.2279 41.2681C36.6164 42.4933 36.9551 43.4396 37.6125 44.107L37.8815 44.366H38.25C39.6545 44.366 42.1248 44.4855 43.4994 45.3223C43.3201 45.4617 43.0213 45.641 42.6328 45.8103C41.6965 46.2088 40.2522 46.5773 38.499 46.8662C34.9928 47.4539 30.2414 47.7527 25.5 47.7527C20.7586 47.7527 16.0072 47.4539 12.501 46.8662C10.7479 46.5773 9.30253 46.2088 8.3662 45.8103C7.97773 45.641 7.6789 45.4617 7.4996 45.3223C8.86425 44.4855 11.3455 44.366 12.75 44.366H13.1186L13.3875 44.107C14.0449 43.4396 14.3836 42.4933 14.7721 41.2681C15.1606 40.0529 15.5192 38.5787 15.818 37.0447C16.2961 34.6441 16.6447 32.1639 16.7742 30.3111C22.5516 32.8312 28.4485 32.8312 34.2258 30.3111ZM14.025 36.9053C13.7361 38.3098 13.4074 39.6545 13.0688 40.7303C12.7799 41.6367 12.4611 42.2543 12.2619 42.573C11.1463 42.5631 9.50175 42.573 7.97773 43.081L9.32245 39.0568L14.025 36.9053ZM36.975 36.9053L41.6766 39.0568L43.0213 43.081C41.4973 42.573 39.8537 42.5631 38.7381 42.573C38.5389 42.2543 38.2201 41.6367 37.9313 40.7303C37.5926 39.6545 37.2639 38.3098 36.975 36.9053Z" fill="white"/>
</svg>
