<svg width="260" height="82" viewBox="0 0 260 82" fill="none" xmlns="http://www.w3.org/2000/svg">
<path d="M15.881 63.8371C15.881 65.9131 13.8051 66.5359 13.8051 66.5359V66.7435C13.8051 66.7435 16.919 67.3662 16.919 70.065C16.919 72.3485 14.9468 74.3207 10.5873 74.3207H2.28354C1.86835 74.3207 1.55696 74.0093 1.55696 73.5941V60.5156C1.55696 60.1004 1.86835 59.789 2.28354 59.789H9.75696C14.0127 59.789 15.881 61.6574 15.881 63.8371ZM10.5873 68.508H6.12405V70.9992H10.5873C11.6253 70.9992 12.1443 70.4802 12.1443 69.7536C12.1443 69.027 11.6253 68.508 10.5873 68.508ZM9.75696 63.1106H6.12405V65.1865H9.75696C10.6911 65.1865 11.1063 64.7713 11.1063 64.1485C11.1063 63.5257 10.7119 63.1106 9.75696 63.1106ZM26.7716 74.7359C21.5818 74.7359 19.0906 72.2447 19.0906 68.3004V60.5156C19.0906 60.1004 19.402 59.789 19.8172 59.789H22.9311C23.3463 59.789 23.6577 60.1004 23.6577 60.5156V68.3004C23.6577 70.1688 24.7995 71.3106 26.7716 71.3106C28.7438 71.3106 29.8856 70.1688 29.8856 68.3004V60.5156C29.8856 60.1004 30.197 59.789 30.6121 59.789H33.7261C34.1413 59.789 34.4527 60.1004 34.4527 60.5156V68.2797C34.4527 72.2447 31.8577 74.7359 26.7716 74.7359ZM41.716 64.0447C41.716 66.1207 51.7844 64.1485 51.7844 69.9612C51.7844 72.4523 49.5008 74.7359 44.2072 74.7359C38.8097 74.7359 36.5262 72.4523 36.5262 70.1688C36.5262 69.6498 36.8376 69.3384 37.3565 69.3384H39.9515C40.5743 69.3384 40.9064 69.6706 41.1971 70.1688C41.5084 70.6878 42.1312 71.3106 44.2072 71.3106C46.2831 71.3106 47.0097 70.584 47.0097 69.9612C47.0097 67.8852 36.9414 69.8574 36.9414 64.0447C36.9414 61.5536 39.1211 59.3738 44.2072 59.3738C48.9819 59.3738 51.2654 61.6574 51.2654 63.7333C51.2654 64.2523 50.954 64.5637 50.435 64.5637H47.8401C47.2173 64.5637 46.8852 64.2523 46.5945 63.7333C46.4077 63.4219 45.7641 62.7992 44.2072 62.7992C42.3388 62.7992 41.716 63.4219 41.716 64.0447ZM69.1169 60.5156V73.5941C69.1169 74.0093 68.8056 74.3207 68.3904 74.3207H65.2764C64.8613 74.3207 64.5499 74.0093 64.5499 73.5941V68.9232H58.5296V73.5941C58.5296 74.0093 58.2182 74.3207 57.803 74.3207H54.6891C54.2739 74.3207 53.9625 74.0093 53.9625 73.5941V60.5156C53.9625 60.1004 54.2739 59.789 54.6891 59.789H57.803C58.2182 59.789 58.5296 60.1004 58.5296 60.5156V65.3941H64.5499V60.5156C64.5499 60.1004 64.8613 59.789 65.2764 59.789H68.3904C68.8056 59.789 69.1169 60.1004 69.1169 60.5156ZM81.3626 60.5156V62.5916C81.3626 63.0068 81.0512 63.3181 80.636 63.3181H78.6639V70.7916H80.636C81.0512 70.7916 81.3626 71.103 81.3626 71.5181V73.5941C81.3626 74.0093 81.0512 74.3207 80.636 74.3207H72.1246C71.7095 74.3207 71.3981 74.0093 71.3981 73.5941V71.5181C71.3981 71.103 71.7095 70.7916 72.1246 70.7916H74.0968V63.3181H72.1246C71.7095 63.3181 71.3981 63.0068 71.3981 62.5916V60.5156C71.3981 60.1004 71.7095 59.789 72.1246 59.789H80.636C81.0512 59.789 81.3626 60.1004 81.3626 60.5156ZM84.3687 74.3207C83.9535 74.3207 83.6421 74.0093 83.6421 73.5941V60.5156C83.6421 60.1004 83.9535 59.789 84.3687 59.789H90.9079C96.513 59.789 99.4193 62.6954 99.4193 67.0549C99.4193 71.4143 96.513 74.3207 90.9079 74.3207H84.3687ZM88.2092 70.9992H90.9079C93.2953 70.9992 94.6446 69.6498 94.6446 67.0549C94.6446 64.4599 93.2953 63.1106 90.9079 63.1106H88.2092V70.9992ZM109.797 71.3106C112.08 71.3106 113.533 69.8574 113.533 67.0549C113.533 64.2523 112.08 62.7992 109.797 62.7992C107.513 62.7992 106.06 64.2523 106.06 67.0549C106.06 69.8574 107.513 71.3106 109.797 71.3106ZM109.797 59.3738C115.298 59.3738 118.308 62.384 118.308 67.0549C118.308 71.7257 115.298 74.7359 109.797 74.7359C104.295 74.7359 101.285 71.7257 101.285 67.0549C101.285 62.384 104.295 59.3738 109.797 59.3738Z" fill="#9D0C25" fill-opacity="0.55"/>
<path d="M200.641 67.8852V68.0928C200.641 68.0928 201.575 68.508 202.613 70.3764L204.377 73.5941C204.543 73.9055 204.377 74.3207 203.858 74.3207H200.641C199.81 74.3207 199.519 74.0093 199.291 73.5941L197.527 70.3764C197.194 69.7536 196.8 69.3384 195.658 69.3384H192.959V73.5941C192.959 74.0093 192.648 74.3207 192.233 74.3207H189.119C188.704 74.3207 188.392 74.0093 188.392 73.5941V60.5156C188.392 60.1004 188.704 59.789 189.119 59.789H196.696C201.263 59.789 203.443 61.9688 203.443 64.5637C203.443 67.2625 200.641 67.8852 200.641 67.8852ZM192.959 66.0169H196.696C198.046 66.0169 198.668 65.3941 198.668 64.5637C198.668 63.7333 198.046 63.1106 196.696 63.1106H192.959V66.0169ZM214.202 71.3106C216.486 71.3106 217.939 69.8574 217.939 67.0549C217.939 64.2523 216.486 62.7992 214.202 62.7992C211.919 62.7992 210.466 64.2523 210.466 67.0549C210.466 69.8574 211.919 71.3106 214.202 71.3106ZM214.202 59.3738C219.704 59.3738 222.714 62.384 222.714 67.0549C222.714 71.7257 219.704 74.7359 214.202 74.7359C208.701 74.7359 205.691 71.7257 205.691 67.0549C205.691 62.384 208.701 59.3738 214.202 59.3738ZM236.075 73.5941L235.348 71.7257H228.809L228.083 73.5941C227.917 74.0093 227.564 74.3207 227.148 74.3207H223.827C223.412 74.3207 223.121 74.0093 223.308 73.5941L229.121 60.5156C229.307 60.1004 229.64 59.789 230.055 59.789H234.31C234.726 59.789 235.058 60.0797 235.245 60.4949L241.057 73.5941C241.244 74.0093 240.954 74.3207 240.538 74.3207H237.009C236.594 74.3207 236.241 74.0093 236.075 73.5941ZM232.027 64.1485L230.262 68.3004H233.895L232.235 64.1485H232.027ZM243.41 74.3207C242.995 74.3207 242.683 74.0093 242.683 73.5941V60.5156C242.683 60.1004 242.995 59.789 243.41 59.789H249.949C255.554 59.789 258.461 62.6954 258.461 67.0549C258.461 71.4143 255.554 74.3207 249.949 74.3207H243.41ZM247.25 70.9992H249.949C252.337 70.9992 253.686 69.6498 253.686 67.0549C253.686 64.4599 252.337 63.1106 249.949 63.1106H247.25V70.9992Z" fill="#9D0C25" fill-opacity="0.55"/>
<path d="M169.133 5.21631L177.141 9.22021C176.788 10.6104 175.667 12.8189 173.922 15.1924C171.792 18.0977 168.861 21.3488 165.85 24.3438C162.855 27.3547 159.748 30.1414 157.281 32.1434C156.048 33.1363 154.959 33.9531 154.142 34.4817C153.742 34.7379 153.406 34.9461 153.181 35.0582C153.133 35.0742 153.133 35.0742 153.101 35.0742C153.069 35.0742 153.069 35.0742 153.021 35.0582C152.797 34.9461 152.461 34.7379 152.06 34.4817C151.243 33.9531 150.154 33.1363 148.921 32.1434C146.455 30.1414 143.348 27.3547 140.353 24.3438C137.342 21.3488 134.411 18.0977 132.281 15.194C130.535 12.8189 129.414 10.6104 129.062 9.22021L137.07 5.21631C139.408 9.97775 141.762 15.1684 144.149 19.6352C146.743 24.5199 149.209 28.5559 152.461 30.1895L153.101 30.5098L153.742 30.1895C156.993 28.5559 159.459 24.5199 162.054 19.6352C164.44 15.1684 166.795 9.97615 169.133 5.21631ZM153.101 22.6461C154.367 22.6461 155.584 22.7582 156.737 22.9504C155.424 24.9043 154.174 26.3938 153.101 27.1946C152.028 26.3938 150.779 24.9043 149.466 22.9504C150.619 22.7582 151.836 22.6461 153.101 22.6461ZM166.41 27.8512C170.142 31.4867 172.16 36.5957 172.16 41.7047V41.8008C166.875 39.8789 160.004 38.982 153.101 38.982C146.199 38.982 139.328 39.8789 134.043 41.8008V41.7047C134.043 36.5957 136.061 31.4867 139.792 27.8512C142.387 30.3496 144.949 32.6238 147.111 34.3696C148.393 35.4106 149.53 36.2754 150.475 36.884C150.939 37.2043 151.356 37.4445 151.756 37.6367C152.156 37.8289 152.461 38.0211 153.101 38.0211C153.742 38.0211 154.046 37.8289 154.447 37.6367C154.847 37.4445 155.263 37.2043 155.728 36.884C156.673 36.2754 157.81 35.4106 159.091 34.3696C161.253 32.6238 163.816 30.3496 166.41 27.8512ZM176.708 33.9852C180.008 37.1883 181.753 38.1813 186.926 39.959C184.908 43.9469 182.778 47.5024 177.797 49.7606L175.027 41.4324C175.011 40.5196 174.947 39.6067 174.818 38.6938L176.708 33.9852ZM129.494 33.9852L131.384 38.6938C131.256 39.6067 131.192 40.5196 131.176 41.4324L128.405 49.7606C123.423 47.5024 121.293 43.9469 119.275 39.959C124.448 38.1813 126.193 37.1883 129.494 33.9852ZM154.543 41.8809C161.766 42.025 168.845 43.2742 173.313 45.4363L177.861 59.0496L170.927 55.8785C170.302 52.0988 169.918 48.4633 169.918 46.5094V44.1711L167.836 45.2121C163.367 47.4543 158.947 48.6715 154.543 48.8957V41.8809ZM151.66 41.8809V48.8957C147.256 48.6715 142.835 47.4543 138.367 45.2121L136.285 44.1711V46.5094C136.285 48.4633 135.9 52.0988 135.276 55.8785L128.341 59.0496L132.89 45.4363C137.358 43.2742 144.437 42.025 151.66 41.8809ZM167.131 48.7356C167.339 51.7145 167.9 55.7024 168.668 59.5621C169.149 62.0285 169.725 64.3988 170.35 66.3528C170.975 68.3227 171.519 69.8442 172.576 70.9172L173.009 71.3336H173.601C175.859 71.3336 179.831 71.5258 182.042 72.8711C181.753 73.0953 181.273 73.3836 180.648 73.6559C179.143 74.2965 176.82 74.8891 174.002 75.3535C168.364 76.2985 160.725 76.7789 153.101 76.7789C145.478 76.7789 137.838 76.2985 132.201 75.3535C129.382 74.8891 127.058 74.2965 125.553 73.6559C124.928 73.3836 124.448 73.0953 124.159 72.8711C126.354 71.5258 130.343 71.3336 132.601 71.3336H133.194L133.626 70.9172C134.683 69.8442 135.228 68.3227 135.852 66.3528C136.477 64.3988 137.054 62.0285 137.534 59.5621C138.303 55.7024 138.863 51.7145 139.072 48.7356C148.361 52.7875 157.842 52.7875 167.131 48.7356ZM134.651 59.3379C134.187 61.5961 133.658 63.7582 133.114 65.4879C132.649 66.9453 132.137 67.9383 131.817 68.4508C130.023 68.4348 127.379 68.4508 124.928 69.2676L127.09 62.7973L134.651 59.3379ZM171.551 59.3379L179.111 62.7973L181.273 69.2676C178.822 68.4508 176.18 68.4348 174.386 68.4508C174.066 67.9383 173.553 66.9453 173.089 65.4879C172.544 63.7582 172.016 61.5961 171.551 59.3379Z" fill="white"/>
</svg>
